<svg id="edit" xmlns="http://www.w3.org/2000/svg" width="40.115" height="39.9" viewBox="0 0 40.115 39.9">
  <path id="Path_4" data-name="Path 4" d="M38.964,41.436a1.051,1.051,0,0,0-1.051,1.051v9.336a3.158,3.158,0,0,1-3.154,3.154H5.257A3.158,3.158,0,0,1,2.1,51.824v-27.4a3.158,3.158,0,0,1,3.154-3.154h9.335a1.051,1.051,0,1,0,0-2.1H5.257A5.263,5.263,0,0,0,0,24.425v27.4a5.263,5.263,0,0,0,5.257,5.257h29.5a5.263,5.263,0,0,0,5.257-5.257V42.488A1.052,1.052,0,0,0,38.964,41.436Zm0,0" transform="translate(0 -17.181)" fill="#b8b8b8"/>
  <path id="Path_5" data-name="Path 5" d="M156.367,47.68l15.352-15.352,4.951,4.951L161.318,52.631Zm0,0" transform="translate(-139.926 -28.957)" fill="#b8b8b8"/>
  <path id="Path_6" data-name="Path 6" d="M132.543,202.69l5.471-1.516-3.956-3.956Zm0,0" transform="translate(-118.607 -176.511)" fill="#b8b8b8"/>
  <path id="Path_7" data-name="Path 7" d="M321.359,1.037a2.632,2.632,0,0,0-3.717,0l-1.115,1.115L321.478,7.1l1.115-1.115a2.631,2.631,0,0,0,0-3.717Zm0,0" transform="translate(-283.247 -0.269)" fill="#b8b8b8"/>
</svg>
