<svg id="fever" xmlns="http://www.w3.org/2000/svg" width="40.115" height="40.115" viewBox="0 0 40.115 40.115">
  <g id="Group_14" data-name="Group 14" transform="translate(29.763)">
    <g id="Group_13" data-name="Group 13">
      <path id="Path_19" data-name="Path 19" d="M376.615,31.067a.608.608,0,0,1-.2-.46V3.235a3.235,3.235,0,1,0-6.47,0V30.608a.626.626,0,0,1-.206.468,5.174,5.174,0,0,0,2.409,8.939,5.33,5.33,0,0,0,1.023.1,5.173,5.173,0,0,0,3.44-9.047ZM371.242,3.235a1.941,1.941,0,1,1,3.882,0v.647h-2.588V5.176h2.588V6.47H373.83V7.764h1.294V9.058h-3.882Zm4.408,34.7a3.92,3.92,0,0,1-3.253.809,3.88,3.88,0,0,1-1.8-6.7,1.918,1.918,0,0,0,.64-1.434V10.352h3.882v1.294H373.83V12.94h1.294v1.294h-2.588v1.294h2.588v1.294H373.83v1.294h1.294V19.41h-2.588V20.7h2.588V22H373.83v1.294h1.294v1.294h-2.588V25.88h2.588v1.294H373.83v1.294h1.294v2.138a1.9,1.9,0,0,0,.633,1.429,3.878,3.878,0,0,1-.107,5.9Z" transform="translate(-368.007)" fill="#b8b8b8"/>
    </g>
  </g>
  <g id="Group_16" data-name="Group 16" transform="translate(16.175 0.19)">
    <g id="Group_15" data-name="Group 15">
      <path id="Path_20" data-name="Path 20" d="M201.941,5.769l-.379-.379a.915.915,0,0,1,0-1.294l.837-.837-.915-.915-.837.836a2.209,2.209,0,0,0,0,3.124l.379.379a.915.915,0,0,1,0,1.294l-.837.837.915.915.837-.836a2.21,2.21,0,0,0,0-3.124Z" transform="translate(-200 -2.344)" fill="#b8b8b8"/>
    </g>
  </g>
  <g id="Group_18" data-name="Group 18" transform="translate(11.646 0.19)">
    <g id="Group_17" data-name="Group 17">
      <path id="Path_21" data-name="Path 21" d="M145.941,5.769l-.379-.379a.915.915,0,0,1,0-1.294l.837-.837-.915-.915-.837.836a2.209,2.209,0,0,0,0,3.124l.379.379a.915.915,0,0,1,0,1.294l-.837.837.915.915.837-.836a2.209,2.209,0,0,0,0-3.124Z" transform="translate(-144 -2.344)" fill="#b8b8b8"/>
    </g>
  </g>
  <g id="Group_20" data-name="Group 20" transform="translate(20.704 0.19)">
    <g id="Group_19" data-name="Group 19">
      <path id="Path_22" data-name="Path 22" d="M257.941,5.769l-.379-.379a.915.915,0,0,1,0-1.294l.837-.837-.915-.915-.837.836a2.21,2.21,0,0,0,0,3.124l.379.379a.915.915,0,0,1,0,1.294l-.837.837.915.915.837-.836a2.209,2.209,0,0,0,0-3.124Z" transform="translate(-256 -2.344)" fill="#b8b8b8"/>
    </g>
  </g>
  <g id="Group_22" data-name="Group 22" transform="translate(34.939 34.939)">
    <g id="Group_21" data-name="Group 21">
      <path id="Path_23" data-name="Path 23" d="M433.294,432A1.3,1.3,0,0,1,432,433.294v1.294A2.591,2.591,0,0,0,434.588,432Z" transform="translate(-432 -432)" fill="#b8b8b8"/>
    </g>
  </g>
  <g id="Group_24" data-name="Group 24" transform="translate(0 9.058)">
    <g id="Group_23" data-name="Group 23">
      <path id="Path_24" data-name="Path 24" d="M15.949,112a12.442,12.442,0,0,0-11.99,8.922l-.292.974A13.914,13.914,0,0,1,.19,127.718a.646.646,0,0,0,0,.914l.3.3a9.3,9.3,0,0,1,2.743,6.622,4.264,4.264,0,0,0,6.286,3.754l1.478-.8v4.541H23.292v-5.434a4.506,4.506,0,0,1,.866-2.664l1.915-2.633a12.441,12.441,0,0,0,2.395-7.364v-.443A12.533,12.533,0,0,0,15.949,112Zm11.225,12.962a11.152,11.152,0,0,1-2.147,6.6L23.113,134.2A5.79,5.79,0,0,0,22,137.623v4.14H12.293v-3.944l4.836-2.6-.613-1.139-7.609,4.1a2.971,2.971,0,0,1-4.378-2.615,10.585,10.585,0,0,0-2.978-7.391,15.217,15.217,0,0,0,3.355-5.9l.292-.974a11.225,11.225,0,0,1,21.976,3.225Z" transform="translate(0 -112)" fill="#b8b8b8"/>
    </g>
  </g>
</svg>
