<svg xmlns="http://www.w3.org/2000/svg" width="21.334" height="20.278" viewBox="0 0 21.334 20.278">
  <path id="Icon_ionic-md-star-outline" data-name="Icon ionic-md-star-outline" d="M25.131,12.231l-7.671-.659-3-7.072-3,7.073-7.67.659,5.819,5.044-1.744,7.5L14.464,20.8l6.592,3.977-1.744-7.5Zm-9.794,7.122-.873-.527-.873.527-3.168,1.911.839-3.606.231-.992L10.723,16l-2.8-2.426,3.688-.317,1.014-.087.4-.937,1.44-3.4,1.44,3.4.4.937,1.014.087L21,13.573,18.2,16l-.77.667.231.992.838,3.607Z" transform="translate(-3.797 -4.5)" fill="#ffc089"/>
</svg>
