<svg xmlns="http://www.w3.org/2000/svg" width="22.164" height="22.205" viewBox="0 0 22.164 22.205">
  <path id="Icon_feather-phone" data-name="Icon feather-phone" d="M23.33,18.126v3.041a2.028,2.028,0,0,1-2.21,2.028,20.063,20.063,0,0,1-8.749-3.112A19.769,19.769,0,0,1,6.288,14,20.063,20.063,0,0,1,3.176,5.21,2.028,2.028,0,0,1,5.193,3H8.235a2.028,2.028,0,0,1,2.028,1.744,13.017,13.017,0,0,0,.71,2.849,2.028,2.028,0,0,1-.456,2.139L9.228,11.019A16.221,16.221,0,0,0,15.311,17.1L16.6,15.814a2.028,2.028,0,0,1,2.139-.456,13.017,13.017,0,0,0,2.849.71,2.028,2.028,0,0,1,1.744,2.058Z" transform="translate(-2.167 -2)" fill="none" stroke="#c8c8c8" stroke-linecap="round" stroke-linejoin="round" stroke-width="2"/>
</svg>
