<svg id="information" xmlns="http://www.w3.org/2000/svg" width="40.115" height="40.115" viewBox="0 0 40.115 40.115">
  <g id="Group_90" data-name="Group 90">
    <g id="Group_89" data-name="Group 89">
      <path id="Path_31" data-name="Path 31" d="M192.183,109.01a4,4,0,0,0,.22.4c.073.11.183.22.257.33a3.311,3.311,0,0,0,.367.33,1.236,1.236,0,0,0,.44.22,1.816,1.816,0,0,0,.477.147,2.255,2.255,0,0,0,.477.037,2.09,2.09,0,0,0,.477-.037,1.313,1.313,0,0,0,.4-.147h.037a2.737,2.737,0,0,0,.44-.257,2.372,2.372,0,0,0,.33-.293l.037-.037a2.015,2.015,0,0,0,.257-.33,1.147,1.147,0,0,0,.183-.367c0-.037,0-.037.037-.073a2.371,2.371,0,0,0,.147-.477,3.116,3.116,0,0,0,0-.953,3.4,3.4,0,0,0-.147-.477,2.081,2.081,0,0,0-.44-.66l-.073-.073a3.2,3.2,0,0,0-.367-.293c-.147-.073-.257-.147-.4-.22a2.065,2.065,0,0,0-.44-.147,2.255,2.255,0,0,0-.477-.037,2.091,2.091,0,0,0-.477.037,2.067,2.067,0,0,0-.44.147h-.037a4,4,0,0,0-.4.22,3.208,3.208,0,0,0-.367.293,2.373,2.373,0,0,0-.293.33,4,4,0,0,0-.22.4,2.068,2.068,0,0,0-.147.44,2.256,2.256,0,0,0-.037.477,2.092,2.092,0,0,0,.037.477A3.33,3.33,0,0,0,192.183,109.01Z" transform="translate(-174.399 -95.92)" fill="#b8b8b8"/>
      <path id="Path_32" data-name="Path 32" d="M184.2,190.737h-.843v-8.984a.947.947,0,0,0-.953-.953h-3.85a.947.947,0,0,0-.953.953v1.98a.947.947,0,0,0,.953.953h.77v6.087h-.77a.947.947,0,0,0-.953.953v1.98a.947.947,0,0,0,.953.953H184.2a.947.947,0,0,0,.953-.953v-1.98A.979.979,0,0,0,184.2,190.737Z" transform="translate(-161.319 -164.226)" fill="#b8b8b8"/>
      <path id="Path_33" data-name="Path 33" d="M20.057,0A20.057,20.057,0,1,0,40.115,20.057,20.062,20.062,0,0,0,20.057,0Zm0,37.475A17.417,17.417,0,1,1,37.475,20.057,17.433,17.433,0,0,1,20.057,37.475Z" fill="#b8b8b8"/>
    </g>
  </g>
</svg>
