<svg id="restaurant" xmlns="http://www.w3.org/2000/svg" width="34.583" height="33.92" viewBox="0 0 34.583 33.92">
  <g id="Group_26" data-name="Group 26" transform="translate(2.178 2.767)">
    <g id="Group_25" data-name="Group 25">
      <path id="Path_27" data-name="Path 27" d="M60.158,26.488,46.694,14.272,30.964,0H29.735l-.251.579A9.384,9.384,0,0,0,28.666,5.1a6.122,6.122,0,0,0,1.971,4.076l12.28,11.142,1.62-1.47L55.888,30.362a3.275,3.275,0,0,0,4.269,0A2.566,2.566,0,0,0,60.158,26.488Z" transform="translate(-28.636)" fill="#b8b8b8"/>
    </g>
  </g>
  <g id="Group_28" data-name="Group 28" transform="translate(0 17.056)">
    <g id="Group_27" data-name="Group 27">
      <path id="Path_28" data-name="Path 28" d="M12.125,291.442,1.16,302.407a3.442,3.442,0,0,0,4.868,4.868L16.993,296.31Z" transform="translate(-0.153 -291.442)" fill="#b8b8b8"/>
    </g>
  </g>
  <g id="Group_30" data-name="Group 30" transform="translate(15.725)">
    <g id="Group_29" data-name="Group 29">
      <path id="Path_29" data-name="Path 29" d="M290.862,6.851l-6.22,6.22-1.623-1.623,6.22-6.22-1.623-1.623-6.22,6.22L279.774,8.2l6.22-6.22L284.371.361l-8.113,8.113a5.727,5.727,0,0,0-1.669,3.711,3.306,3.306,0,0,1-.235,1.036l5.27,5.27a3.3,3.3,0,0,1,1.036-.235,5.726,5.726,0,0,0,3.711-1.669l8.113-8.113Z" transform="translate(-274.354 -0.361)" fill="#b8b8b8"/>
    </g>
  </g>
</svg>
