<svg id="timetable" xmlns="http://www.w3.org/2000/svg" width="40.115" height="40.115" viewBox="0 0 40.115 40.115">
  <path id="Path_8" data-name="Path 8" d="M37.764,22.9V3.6a1.175,1.175,0,0,0-1.175-1.175H30.634V1.175a1.175,1.175,0,0,0-2.35,0V2.429h-4.7V1.175a1.175,1.175,0,1,0-2.35,0V2.429h-4.7V1.175a1.175,1.175,0,0,0-2.35,0V2.429H9.48V1.175a1.175,1.175,0,1,0-2.35,0V2.429H1.175A1.175,1.175,0,0,0,0,3.6V34.239a1.175,1.175,0,0,0,1.175,1.175H20.747A10.573,10.573,0,1,0,37.764,22.9ZM7.13,4.779V5.955a1.175,1.175,0,1,0,2.35,0V4.779h4.7V5.955a1.175,1.175,0,0,0,2.35,0V4.779h4.7V5.955a1.175,1.175,0,1,0,2.35,0V4.779h4.7V5.955a1.175,1.175,0,0,0,2.35,0V4.779h4.779v4.7H2.35v-4.7ZM2.35,33.063V11.831H35.414v8.917a10.565,10.565,0,0,0-14.75,3.041,1.168,1.168,0,0,0-.528-.126h-2.35a1.175,1.175,0,1,0,0,2.35h1.78a10.489,10.489,0,0,0-.539,2.35H17.785a1.175,1.175,0,0,0,0,2.35h1.241a10.473,10.473,0,0,0,.539,2.35Zm27.187,4.7a8.227,8.227,0,1,1,8.227-8.227A8.236,8.236,0,0,1,29.538,37.764Zm0,0" fill="rgba(0,0,0,0.28)"/>
  <path id="Path_9" data-name="Path 9" d="M367.876,306.7H364.35v-3.526a1.175,1.175,0,1,0-2.35,0v4.7a1.175,1.175,0,0,0,1.175,1.175h4.7a1.175,1.175,0,0,0,0-2.35Zm0,0" transform="translate(-333.638 -278.339)" fill="rgba(0,0,0,0.28)"/>
  <path id="Path_10" data-name="Path 10" d="M94.526,182h-2.35a1.175,1.175,0,1,0,0,2.35h2.35a1.175,1.175,0,1,0,0-2.35Zm0,0" transform="translate(-83.87 -167.74)" fill="rgba(0,0,0,0.28)"/>
  <path id="Path_11" data-name="Path 11" d="M94.526,242h-2.35a1.175,1.175,0,1,0,0,2.35h2.35a1.175,1.175,0,1,0,0-2.35Zm0,0" transform="translate(-83.87 -223.04)" fill="rgba(0,0,0,0.28)"/>
  <path id="Path_12" data-name="Path 12" d="M94.526,302h-2.35a1.175,1.175,0,0,0,0,2.35h2.35a1.175,1.175,0,0,0,0-2.35Zm0,0" transform="translate(-83.87 -278.339)" fill="rgba(0,0,0,0.28)"/>
  <path id="Path_13" data-name="Path 13" d="M213.175,184.35h2.351a1.175,1.175,0,0,0,0-2.35h-2.351a1.175,1.175,0,0,0,0,2.35Zm0,0" transform="translate(-195.39 -167.74)" fill="rgba(0,0,0,0.28)"/>
  <path id="Path_14" data-name="Path 14" d="M213.175,244.35h2.351a1.175,1.175,0,0,0,0-2.35h-2.351a1.175,1.175,0,0,0,0,2.35Zm0,0" transform="translate(-195.39 -223.04)" fill="rgba(0,0,0,0.28)"/>
  <path id="Path_15" data-name="Path 15" d="M94.526,362h-2.35a1.175,1.175,0,0,0,0,2.35h2.35a1.175,1.175,0,0,0,0-2.35Zm0,0" transform="translate(-83.87 -333.638)" fill="rgba(0,0,0,0.28)"/>
  <path id="Path_16" data-name="Path 16" d="M333.175,184.35h2.351a1.175,1.175,0,0,0,0-2.35h-2.351a1.175,1.175,0,0,0,0,2.35Zm0,0" transform="translate(-305.988 -167.74)" fill="rgba(0,0,0,0.28)"/>
</svg>
