<svg id="university" xmlns="http://www.w3.org/2000/svg" width="36.965" height="36.965" viewBox="0 0 36.965 36.965">
  <g id="Group_32" data-name="Group 32">
    <g id="Group_31" data-name="Group 31">
      <path id="Path_30" data-name="Path 30" d="M36.349,33.268H35.117V31.42A.616.616,0,0,0,34.5,30.8h-.616V17.25H34.5a.616.616,0,0,0,.616-.616V14.17a.616.616,0,0,0-.616-.616h-.616V11.705a.616.616,0,0,0-.616-.616H32.159L19.1,5.747V3.7h4.313a.616.616,0,0,0,.616-.616V.616A.616.616,0,0,0,23.411,0H18.482a.616.616,0,0,0-.616.616V5.747L4.805,11.089H3.7a.616.616,0,0,0-.616.616v1.848H2.464a.616.616,0,0,0-.616.616v2.464a.616.616,0,0,0,.616.616H3.08V30.8H2.464a.616.616,0,0,0-.616.616v1.848H.616A.616.616,0,0,0,0,33.884v2.464a.616.616,0,0,0,.616.616H36.349a.616.616,0,0,0,.616-.616V33.884A.616.616,0,0,0,36.349,33.268ZM19.1,1.232h3.7V2.464H19.1Zm-.616,5.594L28.9,11.089H8.062Zm-14.17,5.5h28.34v1.232H4.313ZM3.08,14.786h30.8v1.232H3.08ZM32.652,17.25V30.8H25.259V17.25Zm-14.17,6.777A4.318,4.318,0,0,0,14.17,28.34V30.8H12.938V17.25H24.027V30.8H22.795V28.34A4.318,4.318,0,0,0,18.482,24.027Zm3.08,4.313V30.8H15.4V28.34a3.08,3.08,0,1,1,6.161,0ZM11.705,17.25V30.8H4.313V17.25ZM3.08,32.036h30.8v1.232H3.08Zm32.652,3.7H1.232V34.5h34.5Z" fill="#b8b8b8"/>
    </g>
  </g>
  <g id="Group_34" data-name="Group 34" transform="translate(7.16 4.244)">
    <g id="Group_33" data-name="Group 33" transform="translate(0 0)">
      <rect id="Rectangle_6" data-name="Rectangle 6" width="8.656" height="1.232" transform="matrix(0.925, -0.379, 0.379, 0.925, 0, 3.278)" fill="#b8b8b8"/>
    </g>
  </g>
  <g id="Group_36" data-name="Group 36" transform="translate(4.695 8.055)">
    <g id="Group_35" data-name="Group 35" transform="translate(0 0)">
      <rect id="Rectangle_7" data-name="Rectangle 7" width="1.257" height="1.232" transform="translate(0 0.476) rotate(-22.246)" fill="#b8b8b8"/>
    </g>
  </g>
  <g id="Group_38" data-name="Group 38" transform="translate(19.098 28.34)">
    <g id="Group_37" data-name="Group 37">
      <rect id="Rectangle_8" data-name="Rectangle 8" width="1.232" height="1.232" fill="#b8b8b8"/>
    </g>
  </g>
  <g id="Group_40" data-name="Group 40" transform="translate(16.634 28.34)">
    <g id="Group_39" data-name="Group 39">
      <rect id="Rectangle_9" data-name="Rectangle 9" width="1.232" height="1.232" fill="#b8b8b8"/>
    </g>
  </g>
  <g id="Group_42" data-name="Group 42" transform="translate(6.161 19.098)">
    <g id="Group_41" data-name="Group 41">
      <rect id="Rectangle_10" data-name="Rectangle 10" width="1.232" height="1.232" fill="#b8b8b8"/>
    </g>
  </g>
  <g id="Group_44" data-name="Group 44" transform="translate(8.625 19.098)">
    <g id="Group_43" data-name="Group 43">
      <rect id="Rectangle_11" data-name="Rectangle 11" width="1.232" height="1.232" fill="#b8b8b8"/>
    </g>
  </g>
  <g id="Group_46" data-name="Group 46" transform="translate(6.161 21.563)">
    <g id="Group_45" data-name="Group 45">
      <rect id="Rectangle_12" data-name="Rectangle 12" width="1.232" height="1.232" fill="#b8b8b8"/>
    </g>
  </g>
  <g id="Group_48" data-name="Group 48" transform="translate(8.625 21.563)">
    <g id="Group_47" data-name="Group 47">
      <rect id="Rectangle_13" data-name="Rectangle 13" width="1.232" height="1.232" fill="#b8b8b8"/>
    </g>
  </g>
  <g id="Group_50" data-name="Group 50" transform="translate(15.402 19.098)">
    <g id="Group_49" data-name="Group 49">
      <rect id="Rectangle_14" data-name="Rectangle 14" width="1.232" height="1.232" fill="#b8b8b8"/>
    </g>
  </g>
  <g id="Group_52" data-name="Group 52" transform="translate(17.866 19.098)">
    <g id="Group_51" data-name="Group 51">
      <rect id="Rectangle_15" data-name="Rectangle 15" width="1.232" height="1.232" fill="#b8b8b8"/>
    </g>
  </g>
  <g id="Group_54" data-name="Group 54" transform="translate(20.331 19.098)">
    <g id="Group_53" data-name="Group 53">
      <rect id="Rectangle_16" data-name="Rectangle 16" width="1.232" height="1.232" fill="#b8b8b8"/>
    </g>
  </g>
  <g id="Group_56" data-name="Group 56" transform="translate(15.402 21.563)">
    <g id="Group_55" data-name="Group 55">
      <rect id="Rectangle_17" data-name="Rectangle 17" width="1.232" height="1.232" fill="#b8b8b8"/>
    </g>
  </g>
  <g id="Group_58" data-name="Group 58" transform="translate(17.866 21.563)">
    <g id="Group_57" data-name="Group 57">
      <rect id="Rectangle_18" data-name="Rectangle 18" width="1.232" height="1.232" fill="#b8b8b8"/>
    </g>
  </g>
  <g id="Group_60" data-name="Group 60" transform="translate(20.331 21.563)">
    <g id="Group_59" data-name="Group 59">
      <rect id="Rectangle_19" data-name="Rectangle 19" width="1.232" height="1.232" fill="#b8b8b8"/>
    </g>
  </g>
  <g id="Group_62" data-name="Group 62" transform="translate(6.161 25.259)">
    <g id="Group_61" data-name="Group 61">
      <rect id="Rectangle_20" data-name="Rectangle 20" width="1.232" height="1.232" fill="#b8b8b8"/>
    </g>
  </g>
  <g id="Group_64" data-name="Group 64" transform="translate(8.625 25.259)">
    <g id="Group_63" data-name="Group 63">
      <rect id="Rectangle_21" data-name="Rectangle 21" width="1.232" height="1.232" fill="#b8b8b8"/>
    </g>
  </g>
  <g id="Group_66" data-name="Group 66" transform="translate(6.161 27.724)">
    <g id="Group_65" data-name="Group 65">
      <rect id="Rectangle_22" data-name="Rectangle 22" width="1.232" height="1.232" fill="#b8b8b8"/>
    </g>
  </g>
  <g id="Group_68" data-name="Group 68" transform="translate(8.625 27.724)">
    <g id="Group_67" data-name="Group 67">
      <rect id="Rectangle_23" data-name="Rectangle 23" width="1.232" height="1.232" fill="#b8b8b8"/>
    </g>
  </g>
  <g id="Group_70" data-name="Group 70" transform="translate(29.572 19.098)">
    <g id="Group_69" data-name="Group 69">
      <rect id="Rectangle_24" data-name="Rectangle 24" width="1.232" height="1.232" fill="#b8b8b8"/>
    </g>
  </g>
  <g id="Group_72" data-name="Group 72" transform="translate(27.107 19.098)">
    <g id="Group_71" data-name="Group 71">
      <rect id="Rectangle_25" data-name="Rectangle 25" width="1.232" height="1.232" fill="#b8b8b8"/>
    </g>
  </g>
  <g id="Group_74" data-name="Group 74" transform="translate(29.572 21.563)">
    <g id="Group_73" data-name="Group 73">
      <rect id="Rectangle_26" data-name="Rectangle 26" width="1.232" height="1.232" fill="#b8b8b8"/>
    </g>
  </g>
  <g id="Group_76" data-name="Group 76" transform="translate(27.107 21.563)">
    <g id="Group_75" data-name="Group 75">
      <rect id="Rectangle_27" data-name="Rectangle 27" width="1.232" height="1.232" fill="#b8b8b8"/>
    </g>
  </g>
  <g id="Group_78" data-name="Group 78" transform="translate(29.572 25.259)">
    <g id="Group_77" data-name="Group 77">
      <rect id="Rectangle_28" data-name="Rectangle 28" width="1.232" height="1.232" fill="#b8b8b8"/>
    </g>
  </g>
  <g id="Group_80" data-name="Group 80" transform="translate(27.107 25.259)">
    <g id="Group_79" data-name="Group 79">
      <rect id="Rectangle_29" data-name="Rectangle 29" width="1.232" height="1.232" fill="#b8b8b8"/>
    </g>
  </g>
  <g id="Group_82" data-name="Group 82" transform="translate(29.572 27.724)">
    <g id="Group_81" data-name="Group 81">
      <rect id="Rectangle_30" data-name="Rectangle 30" width="1.232" height="1.232" fill="#b8b8b8"/>
    </g>
  </g>
  <g id="Group_84" data-name="Group 84" transform="translate(27.107 27.724)">
    <g id="Group_83" data-name="Group 83">
      <rect id="Rectangle_31" data-name="Rectangle 31" width="1.232" height="1.232" fill="#b8b8b8"/>
    </g>
  </g>
  <g id="Group_86" data-name="Group 86" transform="translate(35.117 20.331)">
    <g id="Group_85" data-name="Group 85">
      <rect id="Rectangle_32" data-name="Rectangle 32" width="1.232" height="5.545" fill="#b8b8b8"/>
    </g>
  </g>
  <g id="Group_88" data-name="Group 88" transform="translate(35.117 27.107)">
    <g id="Group_87" data-name="Group 87">
      <rect id="Rectangle_33" data-name="Rectangle 33" width="1.232" height="1.232" fill="#b8b8b8"/>
    </g>
  </g>
</svg>
